<?xml version="1.0" encoding="UTF-8"?>
<svg id="Calque_1" data-name="Calque 1" xmlns="http://www.w3.org/2000/svg" viewBox="0 0 361.65 152.2">
  <defs>
    <style>
      .cls-1 {
        fill: #44b0e5;
      }

      .cls-1, .cls-2, .cls-3 {
        stroke-width: 0px;
      }

      .cls-2 {
        fill: #252755;
      }

      .cls-3 {
        fill: #fbfbfb;
      }
    </style>
  </defs>
  <path class="cls-2" d="m109.34,151.47c-2.45-.28-4.85-.77-7.19-1.47l-.63-.2c-1.72-.57-3.41-1.25-5.03-2.01-2.58-1.21-5.08-2.84-7.37-4.82-2.81-2.37-5.4-4.98-7.73-7.79-2.96,3.76-6.46,7.02-10.41,9.71-4.71,3.21-9.84,5.38-15.25,6.47-2.5.53-5.07.81-7.67.84l-2.23-.04c-.78-.03-1.57-.09-2.35-.17-3.73-.38-7.36-1.18-10.81-2.4-4.26-1.49-8.18-3.7-11.62-6.55-4.44-3.67-7.81-8.45-9.73-13.82-1.03-2.83-1.92-5.72-2.63-8.59-.58-2.33-1.15-4.77-1.69-7.23l-.16-.81c-.81-4.56-1.56-9.15-2.22-13.64-.62-4.18-1.24-8.61-1.85-13.15-.82-5.61-1.51-11.3-2.07-16.92C.07,62.57-.14,56.11.09,49.68c.11-3.22.34-6.62.68-10.06.57-5.84,2.24-11.38,4.95-16.47,2.62-4.99,6.11-9.33,10.39-12.9,4.4-3.67,9.37-6.32,14.76-7.91,5.3-1.56,10.82-2.04,16.42-1.43,6.04.66,11.72,2.64,16.91,5.88,3.44,2.16,6.55,4.82,9.25,7.94,3.19,3.69,5.57,7.84,7.07,12.36.1.3.2.6.29.89,2.35-7.65,6.77-14.19,12.85-18.99,5.86-4.63,12.52-7.51,19.78-8.57,7.28-1.05,14.54-.15,21.6,2.67,7.51,3.01,13.72,7.98,18.47,14.8l.13.19c3.03,4.45,5.18,9.4,6.38,14.7.82,3.63,1.38,7.35,1.65,11.07l.02.37c.35,6.1.26,12.28-.26,18.38-.46,5.27-.99,10.59-1.6,15.8-.8,6.8-1.65,13.56-2.53,20.16-.97,7.28-2.34,14.6-4.08,21.77l-.04.17c-.68,2.71-1.51,5.39-2.45,7.97l-.38.95c-2.2,5.22-5.56,9.7-9.99,13.33-3.78,3.1-8.08,5.42-12.76,6.91-3.62,1.15-7.4,1.83-11.25,2.01l-7.01-.2Z"/>
  <path class="cls-2" d="m304.1,142.98c-2.08-.17-4.16-.4-6.23-.68-6.2-.84-12.31-2.44-18.16-4.76-2.92-1.16-5.77-2.62-8.48-4.33-3.95-2.49-7.26-5.73-9.84-9.59-2.43-3.63-4-7.68-4.66-12.03-.64-4.23-.37-8.51.82-12.71,1.08-3.92,2.74-7.68,4.95-11.18,1.4-2.23,2.85-4.41,4.31-6.49,2.6-3.73,5.45-7.45,8.44-11.01.21-.25.42-.5.63-.74-.64-.36-1.28-.73-1.9-1.12-3.32-2.09-6.08-4.84-8.17-8.15-2.02-3.1-3.33-6.54-3.89-10.21-.31-2.04-.46-4.11-.45-6.17v-.58c.15-3.67.83-7.3,2.03-10.78,1.15-3.34,2.77-6.51,4.78-9.41l.68-.92c.58-.74,1.21-1.49,1.87-2.22,1.84-2.06,3.97-3.78,6.35-5.1l.27-.15c3.4-1.82,7.05-3.02,10.84-3.57,2.72-.39,5.49-.55,8.22-.46h.33c7.61.39,15.42.91,23.23,1.56l.8.08c1.81.23,3.62.43,5.43.62,2.64.27,5.24.69,7.74,1.23l.15.03c5,1.12,9.71,3.34,14.01,6.6,1.34,1.02,2.59,2.11,3.74,3.27l2.83,3.23c1.6,2.08,2.93,4.34,3.99,6.76l.23.55c1.66,4.15,2.55,8.59,2.65,13.2.1,4.43-.51,8.74-1.81,12.82l-.03.1c-.87,2.67-2.05,5.27-3.51,7.75-.96,1.61-1.95,3.18-2.97,4.69-2.93,4.43-6.06,8.78-9.35,13,2.4,1.59,4.5,3.51,6.26,5.74l.09.11c2.26,2.89,4,6.2,5.17,9.84,1.36,4.22,1.76,8.49,1.19,12.69-.58,4.42-2.07,8.67-4.43,12.63-2.73,4.58-6.38,8.2-10.85,10.77-4.96,2.88-10.41,4.6-16.2,5.14-3.69.34-7.36.46-10.94.38-3.36-.01-6.76-.15-10.16-.43Z"/>
  <path class="cls-2" d="m197.68,143.73c-2.21,0-4.42-.24-6.6-.72-3.15-.7-6.11-1.88-8.8-3.49l-.75-.48c-1.09-.73-2.15-1.53-3.17-2.39-2.86,2.21-6.04,3.9-9.47,5.02-6.64,2.16-13.78,2.13-20.42-.13-3.56-1.21-6.81-3.02-9.65-5.36-3.02-2.49-5.5-5.54-7.35-9.06-1.33-2.53-2.35-5.19-3.03-7.92-1.31-4.77-1.94-9.69-1.89-14.61.03-3.02,0-6.14-.04-9.27-.07-4.13-.1-8.32-.1-12.5,0-5.03.4-10.08,1.18-15.02l.04-.24c.4-2.31.9-4.66,1.5-7,1.02-4.01,2.71-7.77,5.03-11.18l.38-.54c1.12-1.53,2.36-3.02,3.67-4.44,2.28-2.46,4.93-4.49,7.89-6.05l.15-.08c4.21-2.18,8.82-3.42,13.71-3.71,5.4-.31,10.52.67,15.23,2.91,1.54.72,3.05,1.56,4.49,2.52.45.3.9.62,1.33.95.88-.6,1.8-1.15,2.77-1.66,3.37-1.77,6.95-2.86,10.65-3.23,2.5-.25,5.05-.25,7.59-.01,3.68.35,7.18,1.35,10.41,2.97,2.73,1.37,5.24,3.14,7.46,5.29,2.41,2.32,4.38,4.98,5.85,7.92,1.77,3.54,3.01,7.29,3.71,11.19.44,2.48.82,5.01,1.12,7.53l.03.32c.58,5.76.8,11.62.66,17.42-.14,5.62-.57,11.34-1.28,17-.38,2.94-.97,5.81-1.76,8.6-.69,2.43-1.48,4.83-2.37,7.16l-.13.33c-.61,1.51-1.25,3.04-1.92,4.52-1.26,2.8-2.89,5.42-4.84,7.79l-.17.2c-2.53,2.99-5.62,5.32-9.19,6.93-2.98,1.34-6.14,2.15-9.42,2.43-.83.05-1.66.09-2.5.09Zm9.66-80.76v.06-.06Z"/>
  <path class="cls-2" d="m246.11,124.75c-.83,0-1.66-.02-2.5-.06h-.17c-3.49-.2-7.02-.74-10.49-1.61-4.04-1.01-7.87-2.56-11.39-4.61-3.24-1.9-6.22-4.18-8.9-6.8-2.75-2.7-5.13-5.73-7.06-9.01-2.81-4.73-4.85-9.9-6.05-15.35-1.04-4.71-1.61-9.52-1.69-14.29-.09-5,.35-10.07,1.28-15.09,1.02-5.46,2.76-10.74,5.18-15.67l.17-.33c1.75-3.39,3.91-6.62,6.44-9.61,2.81-3.31,6.06-6.15,9.67-8.44,3.44-2.26,7.22-4.01,11.23-5.2,3.59-1.06,7.24-1.71,10.87-1.94,3.36-.25,6.76-.25,10.12.02,3.84.3,7.62,1.03,11.22,2.16l.17.06c4.06,1.32,7.96,3.23,11.61,5.7l.36.25c3.75,2.66,7,5.94,9.69,9.76,2.29,3.25,4.17,6.72,5.61,10.32l.1.26c2.16,5.64,3.45,11.58,3.82,17.66.31,5.05.27,10.09-.12,15l-.03.29c-.46,4.88-1.51,9.72-3.11,14.39-1.81,5.28-4.47,10.16-7.89,14.53l-.15.19c-2.72,3.37-5.92,6.36-9.52,8.88-3.71,2.6-7.76,4.61-12.03,5.97h0c-5.35,1.7-10.88,2.57-16.44,2.57Zm-5.85-62.07l-1.27,4.49c.35.1,1.09.26,2.06.23l-.79-4.72Zm.81-1.02l.29,5.73c.45-.02,1.64-.16,3.12-.94.12-.07.28-.16.47-.28l-3.88-4.51Zm-.73.74l.75,4.97-.22-5.94-.2-.23-.33,1.2Zm-4.05,3.72c.37.21.76.39,1.14.54l2.43-6.41h0s-1.27-1.49-1.27-1.49c-.08.14-.16.28-.24.42-.87,1.81-1.47,3.68-1.85,5.72-.08.41-.15.82-.21,1.22Zm4.77-4.65l3.92,4.68c.45-.3,1.04-.76,1.63-1.45.55-.65,1.01-1.43,1.3-2.26.14-.39.39-1.26.39-2.47,0-.89-.16-1.57-.29-1.98-.33-1.03-.87-2.04-1.52-2.86-.17-.19-.33-.36-.49-.51-.16.01-.32.02-.49.03l-.4.03c-.79.04-1.62.2-2.49.45-.01,0-.03.01-.04.01l-.58,1.45-.99,3.5.05,1.38Zm-.34-.41l.15.18-.02-.62-.13.44Zm-2.04-2.44l1.14,1.36-.41-2.44c-.27.36-.51.71-.73,1.08Zm.89-1.29l.4,2.63.78-2.05-.06-1.73c-.27.2-.52.44-.77.74-.12.13-.24.27-.35.41Zm1.22-1.23l.08,1.5.78-2.05c-.06.04-.13.08-.19.12l-.47.3c-.07.04-.14.08-.2.13Z"/>
  <path class="cls-1" d="m119.3,22.28c2.48,0,4.98.5,7.49,1.5,3.4,1.36,6.22,3.65,8.46,6.86,1.46,2.14,2.48,4.5,3.06,7.07.58,2.58.97,5.18,1.17,7.8.29,5.06.22,10.12-.22,15.17-.44,5.06-.95,10.12-1.53,15.17-.78,6.61-1.61,13.2-2.48,19.77-.88,6.56-2.09,13.05-3.65,19.47-.49,1.95-1.07,3.84-1.75,5.69-.78,1.85-1.97,3.43-3.57,4.74s-3.4,2.29-5.4,2.92c-1.99.63-4.06.97-6.2,1.02-.16,0-.33.01-.49.01-1.96,0-3.84-.27-5.64-.81-.88-.29-1.73-.63-2.55-1.02-.83-.39-1.63-.92-2.41-1.61-3.02-2.53-5.59-5.42-7.73-8.68-2.14-3.26-4.52-6.35-7.15-9.26-.49-.49-1.07-1-1.75-1.53s-1.44-1.02-2.26-1.46c-.83-.44-1.65-.73-2.48-.88-.35-.06-.7-.09-1.02-.09-.44,0-.85.06-1.24.17-1.07.39-2.09.93-3.06,1.6-.97.68-1.85,1.41-2.63,2.19-1.95,1.95-3.7,3.99-5.25,6.13-1.56,2.14-3.11,4.33-4.67,6.56-1.65,2.24-3.62,4.13-5.91,5.69-2.29,1.56-4.69,2.58-7.22,3.06-1.17.26-2.38.39-3.64.39-.62,0-1.26-.03-1.91-.1-1.95-.2-3.82-.61-5.62-1.24-1.8-.63-3.4-1.53-4.81-2.7s-2.41-2.58-2.99-4.23c-.78-2.14-1.44-4.28-1.97-6.42-.54-2.14-1.05-4.33-1.53-6.56-.78-4.38-1.48-8.7-2.12-12.98-.63-4.28-1.24-8.61-1.82-12.98-.78-5.35-1.44-10.7-1.97-16.05-.54-5.35-.71-10.74-.51-16.19.1-2.82.29-5.71.58-8.68.29-2.97,1.12-5.71,2.48-8.24,1.26-2.43,2.92-4.5,4.96-6.2,2.04-1.7,4.3-2.92,6.78-3.65,1.77-.52,3.59-.78,5.46-.78.75,0,1.5.04,2.27.12,2.67.29,5.18,1.17,7.51,2.63,1.55.97,2.97,2.19,4.23,3.65s2.19,3.06,2.77,4.81c1.07,3.21,1.87,6.49,2.41,9.85.53,3.36,1,6.73,1.39,10.14.49,4.57.88,9.12,1.17,13.64.29,4.52.53,9.07.73,13.64,1.36-2.24,2.84-4.4,4.45-6.49,1.6-2.09,3.52-3.77,5.76-5.03,1.82-1.06,3.71-1.59,5.67-1.59.56,0,1.12.04,1.7.13,2.58.39,4.84,1.56,6.78,3.5,1.55,1.46,2.89,3.09,4.01,4.89,1.12,1.8,2.21,3.67,3.28,5.62.19-5.06.51-10.04.95-14.95s.95-9.85,1.53-14.81c.29-2.92.61-5.81.95-8.68s.9-5.71,1.68-8.53c.97-3.79,2.84-6.78,5.62-8.97,2.77-2.19,5.84-3.52,9.19-4.01.89-.13,1.78-.2,2.66-.2m0-16.41c-1.66,0-3.35.12-5,.36-6.24.91-11.96,3.39-17.01,7.37-5.53,4.36-9.43,10.45-11.3,17.62-.98,3.56-1.69,7.2-2.12,10.84-.34,2.83-.66,5.8-.97,8.83-.04.35-.08.7-.12,1.05-.61-.04-1.21-.06-1.82-.06-.51,0-1.01.01-1.51.04-.41-3.5-.89-7.04-1.44-10.51-.67-4.23-1.7-8.41-3.04-12.45-1.27-3.79-3.26-7.28-5.93-10.37-2.33-2.69-5-4.98-7.93-6.81-4.45-2.78-9.3-4.47-14.44-5.03-1.35-.15-2.72-.22-4.05-.22-3.43,0-6.82.49-10.09,1.45-4.63,1.36-8.88,3.64-12.65,6.78-3.7,3.08-6.71,6.83-8.97,11.14-2.36,4.41-3.81,9.22-4.31,14.31-.33,3.32-.55,6.6-.65,9.73-.22,6.12-.02,12.32.58,18.38.55,5.53,1.24,11.15,2.05,16.68.6,4.53,1.22,8.94,1.84,13.12.65,4.42,1.39,8.95,2.19,13.46l.05.3.06.3c.52,2.39,1.07,4.77,1.65,7.07.66,2.65,1.48,5.34,2.44,7.98,1.59,4.45,4.27,8.26,7.97,11.32,2.9,2.4,6.21,4.27,9.84,5.54,2.98,1.05,6.16,1.76,9.4,2.08,1.2.12,2.39.18,3.55.18,2.36,0,4.7-.24,6.96-.73,4.65-.92,9.07-2.8,13.14-5.57,3.8-2.59,7.12-5.78,9.87-9.5l.14-.19.14-.2c1.16-1.67,2.34-3.34,3.52-4.97.27.39.54.79.8,1.19,2.97,4.53,6.6,8.61,10.78,12.14,1.89,1.64,3.95,2.98,6.11,3.99,1.36.64,2.83,1.23,4.33,1.73l.23.08.23.07c3.32,1,6.8,1.5,10.36,1.5.29,0,.57,0,.86-.01,3.7-.09,7.33-.69,10.79-1.79,3.97-1.26,7.61-3.23,10.82-5.86,3.68-3.01,6.48-6.74,8.3-11.07l.15-.35.13-.35c.88-2.39,1.64-4.87,2.27-7.37l.02-.06.02-.06c1.69-6.96,3.02-14.08,3.96-21.17.87-6.54,1.72-13.28,2.51-20.01.6-5.21,1.13-10.47,1.58-15.68.5-5.81.59-11.71.25-17.53v-.14s-.02-.14-.02-.14c-.26-3.42-.77-6.86-1.52-10.2-1.04-4.59-2.89-8.86-5.51-12.7l-.05-.07-.05-.07c-4.09-5.86-9.41-10.14-15.82-12.7-4.44-1.79-9-2.69-13.57-2.69h0Z"/>
  <path class="cls-1" d="m161.87,53.5c1.9,0,3.64.39,5.25,1.16.69.32,1.38.7,2.04,1.14s1.19,1.01,1.56,1.71c.5.7.85,1.49,1.04,2.37.19.89.32,1.77.38,2.66.13,2.91-.11,5.8-.71,8.68s-1.03,5.77-1.28,8.68c1.52-.09,3.03-.14,4.53-.14s2.99.05,4.48.14c2.97.19,5.91.63,8.82,1.33.19-2.53.27-5.06.24-7.59s-.05-5.06-.05-7.59c.06-1.26.13-2.58.19-3.94.06-1.36.5-2.54,1.33-3.56.76-1.01,1.74-1.83,2.94-2.47,1.2-.63,2.43-1.01,3.7-1.14.63-.06,1.27-.09,1.92-.09s1.3.03,1.97.09c1.33.13,2.56.47,3.7,1.04,1.01.51,1.94,1.17,2.8,1.99.85.82,1.53,1.74,2.04,2.75.95,1.9,1.61,3.9,1.99,6.02s.69,4.25.95,6.4c.5,4.99.69,10,.57,15.03-.13,5.03-.51,10.07-1.14,15.12-.25,1.96-.65,3.89-1.19,5.78-.54,1.9-1.15,3.76-1.85,5.6-.51,1.27-1.04,2.53-1.61,3.79-.57,1.27-1.3,2.43-2.18,3.51-.7.82-1.53,1.45-2.51,1.9-.98.44-2.04.71-3.18.81-.31.03-.62.04-.93.04-.83,0-1.66-.09-2.49-.28-1.14-.25-2.18-.66-3.13-1.23-.57-.38-1.12-.81-1.66-1.28s-1-1-1.38-1.56c-.7-1.2-1.2-2.5-1.52-3.89-.32-1.39-.41-2.78-.28-4.17.19-2.21.41-4.41.66-6.59s.32-4.38.19-6.59c-3.03.82-6.15,1.25-9.34,1.28h-.43c-3.04,0-6.01-.33-8.91-1v7.44c0,2.5-.03,4.98-.1,7.44,0,.7-.02,1.38-.05,2.04s-.14,1.34-.33,2.04c-.38,1.27-1.11,2.34-2.18,3.22-1.14.89-2.39,1.55-3.75,1.99s-2.75.66-4.17.66-2.83-.24-4.22-.71-2.62-1.15-3.7-2.04c-1.08-.88-1.94-1.96-2.61-3.22-.66-1.26-1.15-2.56-1.47-3.89-.89-3.16-1.31-6.37-1.28-9.62.03-3.26.01-6.53-.05-9.81-.06-4.04-.09-8.09-.09-12.14s.32-8.06.95-12.04c.32-1.83.71-3.68,1.19-5.55.47-1.86,1.25-3.59,2.32-5.17.7-.95,1.45-1.86,2.28-2.75.82-.88,1.77-1.61,2.85-2.18,1.83-.95,3.86-1.48,6.07-1.61.28,0,.55,0,.82,0m0-14c-.53,0-1.08.02-1.61.05-4.19.24-8.13,1.3-11.71,3.16l-.06.03-.05.03c-2.46,1.3-4.67,2.99-6.56,5.03-1.19,1.28-2.3,2.63-3.31,4l-.14.2-.14.2c-1.99,2.92-3.44,6.15-4.32,9.59-.56,2.22-1.04,4.45-1.41,6.62l-.02.09v.09c-.75,4.68-1.13,9.48-1.13,14.24,0,4.16.03,8.31.1,12.36.06,3.21.08,6.38.05,9.46-.04,4.47.54,8.94,1.73,13.29.59,2.36,1.47,4.67,2.63,6.87,1.53,2.92,3.59,5.45,6.11,7.53,2.36,1.95,5.09,3.46,8.08,4.48,2.84.97,5.78,1.46,8.73,1.46s5.74-.45,8.5-1.35c2.91-.95,5.61-2.38,8.02-4.26l.15-.12.15-.12c1.03-.85,1.97-1.79,2.81-2.8.81,1.01,1.7,1.96,2.69,2.82,1,.88,2.06,1.7,3.16,2.43l.27.18.28.17c2.23,1.34,4.69,2.32,7.29,2.9,1.83.41,3.69.61,5.53.61.69,0,1.4-.03,2.09-.09,2.72-.23,5.33-.9,7.76-1.99,2.91-1.31,5.41-3.2,7.45-5.62l.06-.07.06-.07c1.67-2.03,3.06-4.27,4.14-6.66.64-1.42,1.26-2.88,1.84-4.33l.05-.12.05-.12c.83-2.19,1.58-4.46,2.22-6.73.73-2.57,1.26-5.19,1.6-7.81v-.06c.69-5.5,1.1-11.05,1.24-16.5.14-5.59-.07-11.24-.63-16.79v-.12s-.02-.12-.02-.12c-.29-2.42-.65-4.85-1.07-7.22-.62-3.43-1.71-6.73-3.25-9.82-1.23-2.45-2.86-4.65-4.85-6.57-1.87-1.8-3.97-3.29-6.24-4.42-2.68-1.34-5.58-2.17-8.63-2.46-1.11-.11-2.22-.16-3.31-.16s-2.22.06-3.31.16c-3.07.31-6.04,1.21-8.83,2.68-1.99,1.05-3.78,2.34-5.34,3.86-1.11-1.29-2.4-2.43-3.85-3.4-1.25-.83-2.54-1.56-3.86-2.17-3.47-1.69-7.23-2.52-11.19-2.52h0Z"/>
  <path class="cls-1" d="m247.67,35.57c1.22,0,2.44.05,3.66.14,2.44.19,4.78.64,7.03,1.35,2.37.77,4.65,1.89,6.84,3.37,1.99,1.41,3.71,3.15,5.15,5.2,1.44,2.05,2.61,4.2,3.51,6.45,1.48,3.85,2.34,7.86,2.6,12.04.26,4.17.22,8.28-.1,12.32-.32,3.4-1.04,6.74-2.17,10.01-1.12,3.27-2.74,6.26-4.86,8.95-1.61,1.99-3.48,3.74-5.63,5.25s-4.44,2.65-6.88,3.42c-3.51,1.12-7.08,1.67-10.69,1.67-.54,0-1.09-.01-1.63-.04-2.31-.13-4.62-.48-6.93-1.06s-4.46-1.44-6.45-2.6c-1.86-1.09-3.58-2.41-5.15-3.95s-2.91-3.24-4-5.1c-1.8-3.02-3.08-6.27-3.85-9.77-.77-3.5-1.19-7.01-1.25-10.54-.06-3.72.26-7.48.96-11.26.71-3.79,1.89-7.38,3.56-10.78,1.09-2.12,2.44-4.12,4.04-6.02,1.6-1.89,3.43-3.48,5.49-4.77,1.93-1.28,4.03-2.26,6.31-2.94,2.28-.67,4.54-1.07,6.79-1.2,1.21-.09,2.43-.14,3.65-.14m-7.66,35.61c.55,0,1.1-.04,1.64-.12,1.09-.18,2.08-.5,2.94-.96.87-.46,1.66-.98,2.37-1.57,1.22-1.05,2.17-2.23,2.85-3.56.68-1.32,1.08-2.67,1.21-4.04.19-1.46.13-2.93-.19-4.41s-1-2.86-2.03-4.14c-.52-.73-1.18-1.4-1.98-2.02-.81-.62-1.69-1.1-2.65-1.47-1.15-.32-2.27-.49-3.36-.49-.13,0-.27,0-.4.01-1.8.09-3.4.5-4.78,1.23s-2.54,1.64-3.48,2.74c-.93,1.09-1.64,2.31-2.12,3.66-.48,1.35-.72,2.66-.72,3.93s.21,2.56.63,3.86,1.11,2.5,2.07,3.59c.51.64,1.14,1.23,1.88,1.78s1.56,1,2.46,1.37c.77.27,1.62.46,2.56.55.37.04.74.06,1.1.06m7.66-49.61c-1.53,0-3.08.06-4.62.18-3.26.2-6.56.79-9.8,1.75-3.55,1.05-6.89,2.6-9.93,4.6-3.2,2.03-6.08,4.54-8.57,7.47-2.28,2.7-4.24,5.61-5.81,8.66l-.06.12-.06.12c-2.22,4.53-3.82,9.37-4.76,14.38-.88,4.69-1.28,9.42-1.2,14.07.08,4.45.61,8.92,1.58,13.31,1.09,4.93,2.93,9.6,5.47,13.88,1.71,2.91,3.81,5.59,6.25,7.98,2.38,2.33,5.03,4.36,7.87,6.02,3.16,1.84,6.55,3.21,10.13,4.1,3.16.79,6.38,1.28,9.55,1.46h.12c.76.04,1.52.05,2.28.05,5.04,0,10.06-.78,14.93-2.33,3.77-1.19,7.38-2.98,10.69-5.3,3.21-2.25,6.06-4.91,8.49-7.92l.06-.07.06-.07c3.08-3.92,5.47-8.31,7.1-13.06,1.48-4.3,2.44-8.75,2.86-13.24v-.11s.02-.11.02-.11c.37-4.67.41-9.48.11-14.28-.34-5.58-1.52-11.02-3.5-16.19l-.04-.1-.04-.1c-1.3-3.24-3-6.37-5.05-9.29-2.36-3.35-5.22-6.23-8.5-8.56l-.13-.09-.14-.09c-3.26-2.2-6.74-3.92-10.35-5.09l-.06-.02-.06-.02c-3.24-1.02-6.65-1.67-10.12-1.95-1.59-.1-3.19-.16-4.77-.16h0Z"/>
  <path class="cls-1" d="m318.52,31.11c1.95.24,3.89.47,5.84.67,1.95.2,3.85.5,5.7.9,2.33.52,4.56,1.59,6.68,3.2,2.12,1.61,3.66,3.52,4.62,5.73.81,2.03,1.25,4.22,1.3,6.56s-.25,4.55-.92,6.62c-.44,1.36-1.04,2.68-1.8,3.97-.76,1.29-1.56,2.55-2.4,3.79-4.31,6.52-9.03,12.77-14.15,18.73-5.12,5.96-10.03,12.07-14.73,18.31,1.74-.26,3.91-.47,6.5-.63,2.59-.15,5.19-.12,7.79.09,2.6.22,5.04.68,7.32,1.4,2.27.72,3.97,1.78,5.08,3.19.89,1.14,1.58,2.47,2.07,3.98.49,1.52.63,2.96.44,4.34-.24,1.87-.88,3.67-1.93,5.43-1.05,1.76-2.39,3.1-4.02,4.03-2.58,1.51-5.4,2.4-8.45,2.68-3.05.28-6.05.38-8.99.3-2.92.01-5.85-.1-8.78-.34-1.76-.15-3.51-.34-5.27-.58-4.7-.64-9.27-1.83-13.71-3.59-1.82-.72-3.59-1.63-5.3-2.71s-3.11-2.45-4.21-4.1c-.88-1.3-1.43-2.74-1.67-4.32-.24-1.57-.13-3.16.33-4.76.59-2.16,1.5-4.22,2.72-6.16,1.23-1.94,2.49-3.85,3.79-5.71,2.32-3.33,4.8-6.56,7.44-9.7s5.27-6.26,7.9-9.36c2.63-3.1,5.24-6.22,7.84-9.36,2.59-3.14,5.05-6.38,7.38-9.71-2.6.69-5.24,1.14-7.92,1.37-2.68.23-5.37.31-8.07.25-.65-.02-1.31-.06-1.96-.11-.99-.08-1.98-.2-2.97-.36-1.66-.26-3.28-.7-4.87-1.32-1.03-.41-2.03-.93-3.01-1.54-.97-.61-1.75-1.39-2.32-2.34-.58-.87-.96-1.82-1.11-2.86-.16-1.04-.24-2.09-.23-3.15.07-1.8.4-3.55.99-5.26.59-1.71,1.4-3.3,2.42-4.78.36-.46.75-.92,1.16-1.38s.87-.83,1.38-1.11c1.46-.78,2.99-1.29,4.61-1.52,1.62-.23,3.24-.32,4.88-.27,7.42.35,14.96.85,22.61,1.49m1.45-13.93l-.29-.02c-7.75-.64-15.51-1.16-23.06-1.54h-.12s-.12-.01-.12-.01c-2.45-.08-4.91.06-7.33.41-3.23.47-6.32,1.49-9.21,3.03l-.09.05-.09.05c-1.89,1.05-3.59,2.41-5.05,4.05-.6.68-1.16,1.35-1.68,2l-.27.34-.24.35c-1.75,2.52-3.16,5.28-4.16,8.2-1.04,3-1.63,6.14-1.75,9.31v.21s-.01.21-.01.21c-.01,1.8.12,3.61.39,5.38.46,2.98,1.52,5.76,3.16,8.28,1.69,2.69,3.94,4.93,6.67,6.65,1.66,1.05,3.44,1.96,5.26,2.69l.04.02.04.02c.66.26,1.32.5,1.99.72-1.61,1.9-3.26,3.86-4.93,5.85-2.9,3.45-5.65,7.05-8.2,10.7-1.39,1.98-2.79,4.09-4.15,6.25-1.94,3.09-3.41,6.41-4.36,9.86-.99,3.51-1.23,7.09-.69,10.63.54,3.6,1.84,6.96,3.86,9.98,2.18,3.29,5,6.03,8.38,8.16,2.42,1.54,4.99,2.85,7.62,3.89,5.48,2.17,11.2,3.67,16.99,4.45,1.99.27,4.01.49,5.99.65,3.25.27,6.54.4,9.78.39,3.41.08,6.91-.04,10.41-.36,5.08-.47,9.85-1.98,14.18-4.49,3.72-2.13,6.77-5.16,9.05-8.99,2.02-3.39,3.29-7,3.78-10.74.47-3.46.14-6.99-.99-10.5-.99-3.07-2.45-5.86-4.35-8.29l-.04-.05-.04-.05c-2.52-3.18-5.9-5.6-10.06-7.21,4.62-5.57,8.95-11.41,12.91-17.4.97-1.43,1.91-2.92,2.81-4.44,1.29-2.18,2.32-4.45,3.07-6.77v-.03s.02-.03.02-.03c1.13-3.54,1.66-7.31,1.58-11.19-.09-4.01-.86-7.86-2.3-11.45l-.08-.21-.09-.2c-1.93-4.41-4.95-8.2-8.98-11.27-3.73-2.83-7.8-4.75-12.09-5.71h-.05s-.05-.02-.05-.02c-2.33-.5-4.75-.89-7.2-1.14-1.86-.19-3.72-.41-5.55-.64l-.31-.03h0Z"/>
  <path class="cls-2" d="m51.23,129.54c-1.75.39-3.6.49-5.54.29-1.95-.2-3.82-.61-5.62-1.24-1.8-.63-3.4-1.53-4.81-2.7s-2.41-2.58-2.99-4.23c-.78-2.14-1.44-4.28-1.97-6.42-.54-2.14-1.05-4.33-1.53-6.56-.78-4.38-1.48-8.7-2.12-12.98-.63-4.28-1.24-8.61-1.82-12.98-.78-5.35-1.44-10.7-1.97-16.05-.54-5.35-.71-10.74-.51-16.19.1-2.82.29-5.71.58-8.68.29-2.97,1.12-5.71,2.48-8.24,1.26-2.43,2.92-4.5,4.96-6.2,2.04-1.7,4.3-2.92,6.78-3.65,2.48-.73,5.06-.95,7.73-.66s5.18,1.17,7.51,2.63c1.55.97,2.97,2.19,4.23,3.65s2.19,3.06,2.77,4.81c1.07,3.21,1.87,6.49,2.41,9.85.53,3.36,1,6.73,1.39,10.14.49,4.57.88,9.12,1.17,13.64.29,4.52.53,9.07.73,13.64,1.36-2.24,2.84-4.4,4.45-6.49,1.6-2.09,3.52-3.77,5.76-5.03,2.33-1.36,4.79-1.85,7.37-1.46s4.84,1.56,6.78,3.5c1.55,1.46,2.89,3.09,4.01,4.89,1.12,1.8,2.21,3.67,3.28,5.62.19-5.06.51-10.04.95-14.95s.95-9.85,1.53-14.81c.29-2.92.61-5.81.95-8.68s.9-5.71,1.68-8.53c.97-3.79,2.84-6.78,5.62-8.97,2.77-2.19,5.84-3.52,9.19-4.01,3.36-.49,6.73-.05,10.14,1.31,3.4,1.36,6.22,3.65,8.46,6.86,1.46,2.14,2.48,4.5,3.06,7.07.58,2.58.97,5.18,1.17,7.8.29,5.06.22,10.12-.22,15.17-.44,5.06-.95,10.12-1.53,15.17-.78,6.61-1.61,13.2-2.48,19.77-.88,6.56-2.09,13.05-3.65,19.47-.49,1.95-1.07,3.84-1.75,5.69-.78,1.85-1.97,3.43-3.57,4.74s-3.4,2.29-5.4,2.92c-1.99.63-4.06.97-6.2,1.02s-4.18-.22-6.13-.8c-.88-.29-1.73-.63-2.55-1.02-.83-.39-1.63-.92-2.41-1.61-3.02-2.53-5.59-5.42-7.73-8.68-2.14-3.26-4.52-6.35-7.15-9.26-.49-.49-1.07-1-1.75-1.53s-1.44-1.02-2.26-1.46c-.83-.44-1.65-.73-2.48-.88s-1.58-.12-2.26.07c-1.07.39-2.09.93-3.06,1.6-.97.68-1.85,1.41-2.63,2.19-1.95,1.95-3.7,3.99-5.25,6.13-1.56,2.14-3.11,4.33-4.67,6.56-1.65,2.24-3.62,4.13-5.91,5.69-2.29,1.56-4.69,2.58-7.22,3.06Z"/>
  <path class="cls-2" d="m204.29,121.99c-.7.82-1.53,1.45-2.51,1.9-.98.44-2.04.71-3.18.81-1.14.09-2.28.01-3.41-.24-1.14-.25-2.18-.66-3.13-1.23-.57-.38-1.12-.81-1.66-1.28s-1-1-1.38-1.56c-.7-1.2-1.2-2.5-1.52-3.89-.32-1.39-.41-2.78-.28-4.17.19-2.21.41-4.41.66-6.59s.32-4.38.19-6.59c-3.03.82-6.15,1.25-9.34,1.28s-6.31-.3-9.34-1v7.44c0,2.5-.03,4.98-.1,7.44,0,.7-.02,1.38-.05,2.04s-.14,1.34-.33,2.04c-.38,1.27-1.11,2.34-2.18,3.22-1.14.89-2.39,1.55-3.75,1.99s-2.75.66-4.17.66-2.83-.24-4.22-.71-2.62-1.15-3.7-2.04c-1.08-.88-1.94-1.96-2.61-3.22-.66-1.26-1.15-2.56-1.47-3.89-.89-3.16-1.31-6.37-1.28-9.62.03-3.26.01-6.53-.05-9.81-.06-4.04-.09-8.09-.09-12.14s.32-8.06.95-12.04c.32-1.83.71-3.68,1.19-5.55.47-1.86,1.25-3.59,2.32-5.17.7-.95,1.45-1.86,2.28-2.75.82-.88,1.77-1.61,2.85-2.18,1.83-.95,3.86-1.48,6.07-1.61,2.21-.13,4.23.25,6.07,1.14.69.32,1.38.7,2.04,1.14s1.19,1.01,1.56,1.71c.5.7.85,1.49,1.04,2.37.19.89.32,1.77.38,2.66.13,2.91-.11,5.8-.71,8.68s-1.03,5.77-1.28,8.68c3.03-.19,6.04-.19,9.01,0s5.91.63,8.82,1.33c.19-2.53.27-5.06.24-7.59s-.05-5.06-.05-7.59c.06-1.26.13-2.58.19-3.94.06-1.36.5-2.54,1.33-3.56.76-1.01,1.74-1.83,2.94-2.47,1.2-.63,2.43-1.01,3.7-1.14,1.26-.13,2.56-.13,3.89,0,1.33.13,2.56.47,3.7,1.04,1.01.51,1.94,1.17,2.8,1.99.85.82,1.53,1.74,2.04,2.75.95,1.9,1.61,3.9,1.99,6.02s.69,4.25.95,6.4c.5,4.99.69,10,.57,15.03-.13,5.03-.51,10.07-1.14,15.12-.25,1.96-.65,3.89-1.19,5.78-.54,1.9-1.15,3.76-1.85,5.6-.51,1.27-1.04,2.53-1.61,3.79-.58,1.27-1.3,2.44-2.19,3.52Z"/>
  <path class="cls-2" d="m314.47,124.39c-4.67.02-9.36-.28-14.05-.92-4.7-.64-9.27-1.83-13.71-3.59-1.82-.72-3.59-1.63-5.3-2.71s-3.11-2.45-4.21-4.1c-.88-1.3-1.43-2.74-1.67-4.32-.24-1.57-.13-3.16.33-4.76.59-2.16,1.5-4.22,2.72-6.16,1.23-1.94,2.49-3.85,3.79-5.71,2.32-3.33,4.8-6.56,7.44-9.7s5.27-6.26,7.9-9.36c2.63-3.1,5.24-6.22,7.84-9.36,2.59-3.14,5.05-6.38,7.38-9.71-2.6.69-5.24,1.14-7.92,1.37-2.68.23-5.37.31-8.07.25-1.64-.05-3.28-.21-4.94-.47s-3.28-.7-4.87-1.32c-1.03-.41-2.03-.93-3.01-1.54-.97-.61-1.75-1.39-2.32-2.34-.58-.87-.96-1.82-1.11-2.86-.16-1.04-.24-2.09-.23-3.15.07-1.8.4-3.55.99-5.26.59-1.71,1.4-3.3,2.42-4.78.36-.46.75-.92,1.16-1.38s.87-.83,1.38-1.11c1.46-.78,2.99-1.29,4.61-1.52,1.62-.23,3.24-.32,4.88-.27,7.42.37,14.96.87,22.6,1.5,1.95.24,3.89.47,5.84.67,1.95.2,3.85.5,5.7.9,2.33.52,4.56,1.59,6.68,3.2,2.12,1.61,3.66,3.52,4.62,5.73.81,2.03,1.25,4.22,1.3,6.56s-.25,4.55-.92,6.62c-.44,1.36-1.04,2.68-1.8,3.97-.76,1.29-1.56,2.55-2.4,3.79-4.31,6.52-9.03,12.77-14.15,18.73-5.12,5.96-10.03,12.07-14.73,18.31,1.74-.26,3.91-.47,6.5-.63,2.59-.15,5.19-.12,7.79.09,2.6.22,5.04.68,7.32,1.4,2.27.72,3.97,1.78,5.08,3.19.89,1.14,1.58,2.47,2.07,3.98.49,1.52.63,2.96.44,4.34-.24,1.87-.88,3.67-1.93,5.43-1.05,1.76-2.39,3.1-4.02,4.03-2.58,1.51-5.4,2.4-8.45,2.68-3.03.27-6.03.37-8.97.29Z"/>
  <path class="cls-2" d="m276.45,64.12c-.26-4.17-1.12-8.18-2.6-12.04-.9-2.25-2.07-4.4-3.51-6.45-1.44-2.05-3.16-3.79-5.15-5.2-2.18-1.48-4.46-2.6-6.84-3.37-2.25-.71-4.59-1.16-7.03-1.35s-4.88-.19-7.32,0c-2.25.13-4.51.53-6.79,1.2s-4.38,1.65-6.31,2.94c-2.05,1.28-3.88,2.87-5.49,4.77-1.61,1.89-2.95,3.9-4.04,6.02-1.67,3.4-2.86,7-3.56,10.78-.71,3.79-1.03,7.54-.96,11.26.06,3.53.48,7.04,1.25,10.54s2.05,6.76,3.85,9.77c1.09,1.86,2.42,3.56,4,5.1,1.57,1.54,3.29,2.86,5.15,3.95,1.99,1.16,4.14,2.02,6.45,2.6,2.31.58,4.62.93,6.93,1.06,4.17.19,8.28-.35,12.32-1.64,2.44-.77,4.73-1.91,6.88-3.42s4.03-3.26,5.63-5.25c2.12-2.7,3.74-5.68,4.86-8.95,1.12-3.27,1.84-6.61,2.17-10.01.34-4.03.37-8.14.11-12.31Z"/>
  <ellipse class="cls-3" cx="245.28" cy="59.44" rx="13.09" ry="12.71" transform="translate(-4.77 25.23) rotate(-5.83)"/>
  <ellipse class="cls-3" cx="248.29" cy="88.94" rx="24.89" ry="11.7" transform="translate(-7.75 25.69) rotate(-5.83)"/>
  <path class="cls-2" d="m247.67,40.57c1.08,0,2.18.04,3.27.13,2.05.16,4.04.54,5.88,1.12,1.9.62,3.76,1.53,5.53,2.72,1.5,1.07,2.81,2.41,3.91,3.96,1.21,1.72,2.2,3.53,2.95,5.4,1.28,3.35,2.04,6.89,2.26,10.52.24,3.91.21,7.81-.09,11.58-.29,2.98-.93,5.95-1.91,8.82-.93,2.72-2.29,5.23-4.04,7.46-1.3,1.61-2.85,3.04-4.59,4.27-1.72,1.21-3.58,2.13-5.53,2.75-3.01.96-6.09,1.44-9.18,1.44-.46,0-.94-.01-1.36-.03-1.98-.11-4-.42-6-.92-1.85-.46-3.58-1.16-5.14-2.06-1.5-.88-2.9-1.96-4.18-3.21-1.25-1.22-2.32-2.59-3.2-4.09-1.51-2.54-2.61-5.33-3.26-8.29-.7-3.16-1.08-6.37-1.13-9.55-.06-3.37.24-6.82.88-10.26.62-3.31,1.66-6.49,3.11-9.45.91-1.76,2.05-3.45,3.39-5.03,1.26-1.49,2.72-2.75,4.32-3.76l.06-.04.06-.04c1.5-1,3.17-1.77,4.95-2.3,1.89-.56,3.8-.9,5.66-1.01h.1c1.09-.09,2.19-.13,3.28-.13m0-5c-1.22,0-2.44.05-3.66.14-2.25.13-4.51.53-6.79,1.2s-4.38,1.65-6.31,2.94c-2.05,1.28-3.88,2.87-5.49,4.77-1.61,1.89-2.95,3.9-4.04,6.02-1.67,3.4-2.86,7-3.56,10.78-.71,3.79-1.03,7.54-.96,11.26.06,3.53.48,7.04,1.25,10.54s2.05,6.76,3.85,9.77c1.09,1.86,2.42,3.56,4,5.1,1.57,1.54,3.29,2.86,5.15,3.95,1.99,1.16,4.14,2.02,6.45,2.6,2.31.58,4.62.93,6.93,1.06.55.03,1.09.04,1.63.04,3.61,0,7.18-.56,10.69-1.67,2.44-.77,4.73-1.91,6.88-3.42s4.03-3.26,5.63-5.25c2.12-2.7,3.74-5.68,4.86-8.95,1.12-3.27,1.84-6.61,2.17-10.01.32-4.04.35-8.15.1-12.32-.26-4.17-1.12-8.18-2.6-12.04-.9-2.25-2.07-4.4-3.51-6.45-1.44-2.05-3.16-3.79-5.15-5.2-2.18-1.48-4.46-2.6-6.84-3.37-2.25-.71-4.59-1.16-7.03-1.35-1.22-.09-2.44-.14-3.65-.14h0Z"/>
</svg>